<svg width="200" height="200" viewBox="0 0 200 200" xmlns="http://www.w3.org/2000/svg">
  
  <rect width="200" height="200" fill="#F0F2F5" rx="20"/>
  <!-- Центральный узел -->
  <circle cx="100" cy="100" r="25" fill="#007BFF" stroke="#0056b3" stroke-width="2"/>
  
  <!-- Микросхема внутри центрального узла -->
  <rect x="80" y="95" width="40" height="10" fill="#0056b3" rx="2"/>
  <rect x="88" y="90" width="24" height="20" fill="#003a80" rx="2"/>
  
  <!-- Внешние узлы и соединения -->
  <g stroke="#0056b3" stroke-width="1.5" fill="none">
    <!-- Соединительные линии -->
    <line x1="100" y1="100" x2="160" y2="100"/>
    <line x1="100" y1="100" x2="100" y2="160"/>
    <line x1="100" y1="100" x2="40" y2="100"/>
    <line x1="100" y1="100" x2="100" y2="40"/>
    
    <!-- Диагональные соединения -->
    <line x1="100" y1="100" x2="145" y2="145"/>
    <line x1="100" y1="100" x2="145" y2="55"/>
    <line x1="100" y1="100" x2="55" y2="145"/>
    <line x1="100" y1="100" x2="55" y2="55"/>
    
    <!-- Внешние узлы -->
    <circle cx="160" cy="100" r="10" fill="#007BFF"/>
    <circle cx="100" cy="160" r="10" fill="#007BFF"/>
    <circle cx="40" cy="100" r="10" fill="#007BFF"/>
    <circle cx="100" cy="40" r="10" fill="#007BFF"/>
    <circle cx="145" cy="145" r="10" fill="#007BFF"/>
    <circle cx="145" cy="55" r="10" fill="#007BFF"/>
    <circle cx="55" cy="145" r="10" fill="#007BFF"/>
    <circle cx="55" cy="55" r="10" fill="#007BFF"/>
  </g>
  
  <!-- Эффект резилиентности (прочные соединения) -->
  <g stroke-dasharray="3 3" stroke="#003a80" stroke-width="0.8">
    <line x1="160" y1="100" x2="180" y2="100"/>
    <line x1="100" y1="160" x2="100" y2="180"/>
    <line x1="40" y1="100" x2="-20" y2="100"/>
    <line x1="100" y1="40" x2="100" y2="-20"/>
  </g>
  
</svg>